<svg width="32" height="32" viewBox="0 0 32 32" fill="none" xmlns="http://www.w3.org/2000/svg">
<circle cx="16" cy="16" r="15" fill="url(#paint0_linear_1_1123)"/>
<circle opacity="0.7" cx="14.5" cy="11.5" r="0.5" fill="white"/>
<circle opacity="0.7" cx="12.5" cy="11.5" r="0.5" fill="white"/>
<circle opacity="0.7" cx="11.5" cy="11.5" r="0.5" fill="white"/>
<circle opacity="0.7" cx="10.5" cy="11.5" r="0.5" fill="white"/>
<circle opacity="0.7" cx="9.5" cy="11.5" r="0.5" fill="white"/>
<circle opacity="0.7" cx="8.5" cy="11.5" r="0.5" fill="white"/>
<circle opacity="0.7" cx="7.5" cy="11.5" r="0.5" fill="white"/>
<circle opacity="0.7" cx="6.5" cy="11.5" r="0.5" fill="white"/>
<circle opacity="0.8" cx="25.5" cy="10.5" r="0.5" fill="white"/>
<circle opacity="0.8" cx="25.5" cy="9.5" r="0.5" fill="white"/>
<circle opacity="0.9" cx="25.5" cy="7.5" r="0.5" fill="white"/>
<circle opacity="0.9" cx="25.5" cy="8.5" r="0.5" fill="white"/>
<circle opacity="0.8" cx="7.5" cy="10.5" r="0.5" fill="white"/>
<circle opacity="0.8" cx="7.5" cy="9.5" r="0.5" fill="white"/>
<circle opacity="0.9" cx="7.5" cy="7.5" r="0.5" fill="white"/>
<circle opacity="0.9" cx="7.5" cy="8.5" r="0.5" fill="white"/>
<circle opacity="0.8" cx="8.5" cy="10.5" r="0.5" fill="white"/>
<circle opacity="0.8" cx="8.5" cy="9.5" r="0.5" fill="white"/>
<circle opacity="0.9" cx="8.5" cy="7.5" r="0.5" fill="white"/>
<circle opacity="0.9" cx="8.5" cy="8.5" r="0.5" fill="white"/>
<circle opacity="0.8" cx="6.5" cy="10.5" r="0.5" fill="white"/>
<circle opacity="0.8" cx="6.5" cy="9.5" r="0.5" fill="white"/>
<circle opacity="0.9" cx="6.5" cy="7.5" r="0.5" fill="white"/>
<circle opacity="0.9" cx="6.5" cy="8.5" r="0.5" fill="white"/>
<circle opacity="0.8" cx="10.5" cy="10.5" r="0.5" fill="white"/>
<circle opacity="0.8" cx="10.5" cy="9.5" r="0.5" fill="white"/>
<circle opacity="0.9" cx="10.5" cy="7.5" r="0.5" fill="white"/>
<circle opacity="0.9" cx="10.5" cy="8.5" r="0.5" fill="white"/>
<circle opacity="0.8" cx="11.5" cy="10.5" r="0.5" fill="white"/>
<circle opacity="0.8" cx="11.5" cy="9.5" r="0.5" fill="white"/>
<circle opacity="0.9" cx="11.5" cy="7.5" r="0.5" fill="white"/>
<circle opacity="0.9" cx="11.5" cy="8.5" r="0.5" fill="white"/>
<circle opacity="0.8" cx="9.5" cy="10.5" r="0.5" fill="white"/>
<circle opacity="0.8" cx="9.5" cy="9.5" r="0.5" fill="white"/>
<circle opacity="0.9" cx="9.5" cy="7.5" r="0.5" fill="white"/>
<circle opacity="0.9" cx="9.5" cy="8.5" r="0.5" fill="white"/>
<circle opacity="0.8" cx="13.5" cy="10.5" r="0.5" fill="white"/>
<circle opacity="0.8" cx="13.5" cy="9.5" r="0.5" fill="white"/>
<circle opacity="0.9" cx="13.5" cy="7.5" r="0.5" fill="white"/>
<circle opacity="0.9" cx="13.5" cy="8.5" r="0.5" fill="white"/>
<circle opacity="0.8" cx="14.5" cy="10.5" r="0.5" fill="white"/>
<circle opacity="0.8" cx="14.5" cy="9.5" r="0.5" fill="white"/>
<circle opacity="0.9" cx="14.5" cy="7.5" r="0.5" fill="white"/>
<circle opacity="0.9" cx="14.5" cy="8.5" r="0.5" fill="white"/>
<circle opacity="0.8" cx="12.5" cy="10.5" r="0.5" fill="white"/>
<circle opacity="0.8" cx="12.5" cy="9.5" r="0.5" fill="white"/>
<circle opacity="0.9" cx="12.5" cy="7.5" r="0.5" fill="white"/>
<circle opacity="0.9" cx="12.5" cy="8.5" r="0.5" fill="white"/>
<circle opacity="0.8" cx="16.5" cy="10.5" r="0.5" fill="white"/>
<circle opacity="0.8" cx="16.5" cy="9.5" r="0.5" fill="white"/>
<circle opacity="0.9" cx="16.5" cy="7.5" r="0.5" fill="white"/>
<circle opacity="0.9" cx="16.5" cy="8.5" r="0.5" fill="white"/>
<circle opacity="0.8" cx="17.5" cy="10.5" r="0.5" fill="white"/>
<circle opacity="0.8" cx="17.5" cy="9.5" r="0.5" fill="white"/>
<circle opacity="0.9" cx="17.5" cy="7.5" r="0.5" fill="white"/>
<circle opacity="0.9" cx="17.5" cy="8.5" r="0.5" fill="white"/>
<circle opacity="0.8" cx="15.5" cy="10.5" r="0.5" fill="white"/>
<circle opacity="0.8" cx="15.5" cy="9.5" r="0.5" fill="white"/>
<circle opacity="0.9" cx="15.5" cy="7.5" r="0.5" fill="white"/>
<circle opacity="0.9" cx="15.5" cy="8.5" r="0.5" fill="white"/>
<circle opacity="0.8" cx="18.5" cy="10.5" r="0.5" fill="white"/>
<circle opacity="0.8" cx="18.5" cy="9.5" r="0.5" fill="white"/>
<circle opacity="0.9" cx="18.5" cy="7.5" r="0.5" fill="white"/>
<circle opacity="0.9" cx="18.5" cy="8.5" r="0.5" fill="white"/>
<circle opacity="0.8" cx="20.5" cy="10.5" r="0.5" fill="white"/>
<circle opacity="0.8" cx="20.5" cy="9.5" r="0.5" fill="white"/>
<circle opacity="0.9" cx="20.5" cy="7.5" r="0.5" fill="white"/>
<circle opacity="0.9" cx="20.5" cy="8.5" r="0.5" fill="white"/>
<circle opacity="0.8" cx="21.5" cy="10.5" r="0.5" fill="white"/>
<circle opacity="0.8" cx="21.5" cy="9.5" r="0.5" fill="white"/>
<circle opacity="0.9" cx="21.5" cy="7.5" r="0.5" fill="white"/>
<circle opacity="0.9" cx="21.5" cy="8.5" r="0.5" fill="white"/>
<circle opacity="0.8" cx="19.5" cy="10.5" r="0.5" fill="white"/>
<circle opacity="0.8" cx="19.5" cy="9.5" r="0.5" fill="white"/>
<circle opacity="0.9" cx="19.5" cy="7.5" r="0.5" fill="white"/>
<circle opacity="0.9" cx="19.5" cy="8.5" r="0.5" fill="white"/>
<circle opacity="0.8" cx="23.5" cy="10.5" r="0.5" fill="white"/>
<circle opacity="0.8" cx="23.5" cy="9.5" r="0.5" fill="white"/>
<circle opacity="0.9" cx="23.5" cy="7.5" r="0.5" fill="white"/>
<circle opacity="0.9" cx="23.5" cy="8.5" r="0.5" fill="white"/>
<circle opacity="0.8" cx="24.5" cy="10.5" r="0.5" fill="white"/>
<circle opacity="0.8" cx="24.5" cy="9.5" r="0.5" fill="white"/>
<circle opacity="0.9" cx="24.5" cy="7.5" r="0.5" fill="white"/>
<circle opacity="0.9" cx="24.5" cy="8.5" r="0.5" fill="white"/>
<circle opacity="0.8" cx="22.5" cy="10.5" r="0.5" fill="white"/>
<circle opacity="0.8" cx="22.5" cy="9.5" r="0.5" fill="white"/>
<circle opacity="0.9" cx="22.5" cy="7.5" r="0.5" fill="white"/>
<circle opacity="0.9" cx="22.5" cy="8.5" r="0.5" fill="white"/>
<circle opacity="0.7" cx="25.5" cy="11.5" r="0.5" fill="white"/>
<circle opacity="0.7" cx="24.5" cy="11.5" r="0.5" fill="white"/>
<circle opacity="0.7" cx="23.5" cy="11.5" r="0.5" fill="white"/>
<circle opacity="0.7" cx="22.5" cy="11.5" r="0.5" fill="white"/>
<circle opacity="0.7" cx="21.5" cy="11.5" r="0.5" fill="white"/>
<circle opacity="0.7" cx="20.5" cy="11.5" r="0.5" fill="white"/>
<circle opacity="0.7" cx="19.5" cy="11.5" r="0.5" fill="white"/>
<circle opacity="0.7" cx="18.5" cy="11.5" r="0.5" fill="white"/>
<circle cx="13.5" cy="6.5" r="0.5" fill="white"/>
<circle cx="12.5" cy="6.5" r="0.5" fill="white"/>
<circle cx="11.5" cy="6.5" r="0.5" fill="white"/>
<circle cx="10.5" cy="6.5" r="0.5" fill="white"/>
<circle cx="9.5" cy="6.5" r="0.5" fill="white"/>
<circle cx="8.5" cy="6.5" r="0.5" fill="white"/>
<circle cx="7.5" cy="6.5" r="0.5" fill="white"/>
<circle cx="6.5" cy="6.5" r="0.5" fill="white"/>
<circle cx="21.5" cy="6.5" r="0.5" fill="white"/>
<circle cx="20.5" cy="6.5" r="0.5" fill="white"/>
<circle cx="19.5" cy="6.5" r="0.5" fill="white"/>
<circle cx="18.5" cy="6.5" r="0.5" fill="white"/>
<circle cx="17.5" cy="6.5" r="0.5" fill="white"/>
<circle cx="16.5" cy="6.5" r="0.5" fill="white"/>
<circle cx="15.5" cy="6.5" r="0.5" fill="white"/>
<circle cx="25.5" cy="6.5" r="0.5" fill="white"/>
<circle cx="24.5" cy="6.5" r="0.5" fill="white"/>
<circle cx="23.5" cy="6.5" r="0.5" fill="white"/>
<circle cx="22.5" cy="6.5" r="0.5" fill="white"/>
<circle cx="14.5" cy="6.5" r="0.5" fill="white"/>
<circle opacity="0.7" cx="14.5" cy="12.5" r="0.5" fill="white"/>
<circle opacity="0.6" cx="14.5" cy="14.5" r="0.5" fill="white"/>
<circle opacity="0.5" cx="14.5" cy="15.5" r="0.5" fill="white"/>
<circle opacity="0.5" cx="14.5" cy="16.5" r="0.5" fill="white"/>
<circle opacity="0.4" cx="14.5" cy="17.5" r="0.5" fill="white"/>
<circle opacity="0.4" cx="14.5" cy="18.5" r="0.5" fill="white"/>
<circle opacity="0.4" cx="14.5" cy="19.5" r="0.5" fill="white"/>
<circle opacity="0.3" cx="14.5" cy="20.5" r="0.5" fill="white"/>
<circle opacity="0.3" cx="14.5" cy="21.5" r="0.5" fill="white"/>
<circle opacity="0.6" cx="14.5" cy="13.5" r="0.5" fill="white"/>
<circle opacity="0.7" cx="13.5" cy="11.5" r="0.5" fill="white"/>
<circle opacity="0.7" cx="13.5" cy="12.5" r="0.5" fill="white"/>
<circle opacity="0.6" cx="13.5" cy="14.5" r="0.5" fill="white"/>
<circle opacity="0.5" cx="13.5" cy="15.5" r="0.5" fill="white"/>
<circle opacity="0.5" cx="13.5" cy="16.5" r="0.5" fill="white"/>
<circle opacity="0.4" cx="13.5" cy="17.5" r="0.5" fill="white"/>
<circle opacity="0.4" cx="13.5" cy="18.5" r="0.5" fill="white"/>
<circle opacity="0.4" cx="13.5" cy="19.5" r="0.5" fill="white"/>
<circle opacity="0.3" cx="13.5" cy="20.5" r="0.5" fill="white"/>
<circle opacity="0.3" cx="13.5" cy="21.5" r="0.5" fill="white"/>
<circle opacity="0.6" cx="13.5" cy="13.5" r="0.5" fill="white"/>
<circle opacity="0.7" cx="15.5" cy="11.5" r="0.5" fill="white"/>
<circle opacity="0.7" cx="15.5" cy="12.5" r="0.5" fill="white"/>
<circle opacity="0.6" cx="15.5" cy="14.5" r="0.5" fill="white"/>
<circle opacity="0.5" cx="15.5" cy="15.5" r="0.5" fill="white"/>
<circle opacity="0.5" cx="15.5" cy="16.5" r="0.5" fill="white"/>
<circle opacity="0.4" cx="15.5" cy="17.5" r="0.5" fill="white"/>
<circle opacity="0.4" cx="15.5" cy="18.5" r="0.5" fill="white"/>
<circle opacity="0.4" cx="15.5" cy="19.5" r="0.5" fill="white"/>
<circle opacity="0.3" cx="15.5" cy="20.5" r="0.5" fill="white"/>
<circle opacity="0.3" cx="15.5" cy="21.5" r="0.5" fill="white"/>
<circle opacity="0.6" cx="15.5" cy="13.5" r="0.5" fill="white"/>
<circle opacity="0.7" cx="16.5" cy="11.5" r="0.5" fill="white"/>
<circle opacity="0.7" cx="16.5" cy="12.5" r="0.5" fill="white"/>
<circle opacity="0.6" cx="16.5" cy="14.5" r="0.5" fill="white"/>
<circle opacity="0.5" cx="16.5" cy="15.5" r="0.5" fill="white"/>
<circle opacity="0.5" cx="16.5" cy="16.5" r="0.5" fill="white"/>
<circle opacity="0.4" cx="16.5" cy="17.5" r="0.5" fill="white"/>
<circle opacity="0.4" cx="16.5" cy="18.5" r="0.5" fill="white"/>
<circle opacity="0.4" cx="16.5" cy="19.5" r="0.5" fill="white"/>
<circle opacity="0.3" cx="16.5" cy="20.5" r="0.5" fill="white"/>
<circle opacity="0.3" cx="16.5" cy="21.5" r="0.5" fill="white"/>
<circle opacity="0.6" cx="16.5" cy="13.5" r="0.5" fill="white"/>
<circle opacity="0.7" cx="17.5" cy="11.5" r="0.5" fill="white"/>
<circle opacity="0.7" cx="17.5" cy="12.5" r="0.5" fill="white"/>
<circle opacity="0.6" cx="17.5" cy="14.5" r="0.5" fill="white"/>
<circle opacity="0.5" cx="17.5" cy="15.5" r="0.5" fill="white"/>
<circle opacity="0.5" cx="17.5" cy="16.5" r="0.5" fill="white"/>
<circle opacity="0.4" cx="17.5" cy="17.5" r="0.5" fill="white"/>
<circle opacity="0.4" cx="17.5" cy="18.5" r="0.5" fill="white"/>
<circle opacity="0.4" cx="17.5" cy="19.5" r="0.5" fill="white"/>
<circle opacity="0.3" cx="17.5" cy="20.5" r="0.5" fill="white"/>
<circle opacity="0.3" cx="17.5" cy="21.5" r="0.5" fill="white"/>
<circle opacity="0.6" cx="17.5" cy="13.5" r="0.5" fill="white"/>
<circle opacity="0.3" cx="13.5" cy="22.5" r="0.5" fill="white"/>
<circle opacity="0.3" cx="14.5" cy="22.5" r="0.5" fill="white"/>
<circle opacity="0.3" cx="15.5" cy="22.5" r="0.5" fill="white"/>
<circle opacity="0.3" cx="16.5" cy="22.5" r="0.5" fill="white"/>
<circle opacity="0.3" cx="17.5" cy="22.5" r="0.5" fill="white"/>
<circle opacity="0.2" cx="14.5" cy="23.5" r="0.5" fill="white"/>
<circle opacity="0.2" cx="15.5" cy="23.5" r="0.5" fill="white"/>
<circle opacity="0.2" cx="16.5" cy="23.5" r="0.5" fill="white"/>
<circle opacity="0.2" cx="17.5" cy="23.5" r="0.5" fill="white"/>
<circle opacity="0.2" cx="13.5" cy="23.5" r="0.5" fill="white"/>
<circle opacity="0.2" cx="13.5" cy="25.5" r="0.5" fill="white"/>
<circle opacity="0.2" cx="14.5" cy="25.5" r="0.5" fill="white"/>
<circle opacity="0.2" cx="15.5" cy="25.5" r="0.5" fill="white"/>
<circle opacity="0.2" cx="16.5" cy="25.5" r="0.5" fill="white"/>
<circle opacity="0.2" cx="17.5" cy="25.5" r="0.5" fill="white"/>
<circle opacity="0.1" cx="13.5" cy="26.5" r="0.5" fill="white"/>
<circle opacity="0.1" cx="14.5" cy="26.5" r="0.5" fill="white"/>
<circle opacity="0.1" cx="15.5" cy="26.5" r="0.5" fill="white"/>
<circle opacity="0.1" cx="16.5" cy="26.5" r="0.5" fill="white"/>
<circle opacity="0.1" cx="17.5" cy="26.5" r="0.5" fill="white"/>
<circle opacity="0.03" cx="13.5" cy="28.5" r="0.5" fill="white"/>
<circle opacity="0.03" cx="14.5" cy="28.5" r="0.5" fill="white"/>
<circle opacity="0.03" cx="15.5" cy="28.5" r="0.5" fill="white"/>
<circle opacity="0.03" cx="16.5" cy="28.5" r="0.5" fill="white"/>
<circle opacity="0.03" cx="17.5" cy="28.5" r="0.5" fill="white"/>
<circle opacity="0.2" cx="13.5" cy="24.5" r="0.5" fill="white"/>
<circle opacity="0.2" cx="14.5" cy="24.5" r="0.5" fill="white"/>
<circle opacity="0.2" cx="15.5" cy="24.5" r="0.5" fill="white"/>
<circle opacity="0.2" cx="16.5" cy="24.5" r="0.5" fill="white"/>
<circle opacity="0.2" cx="17.5" cy="24.5" r="0.5" fill="white"/>
<circle opacity="0.7" cx="18.5" cy="12.5" r="0.5" fill="white"/>
<circle opacity="0.6" cx="18.5" cy="14.5" r="0.5" fill="white"/>
<circle opacity="0.5" cx="18.5" cy="15.5" r="0.5" fill="white"/>
<circle opacity="0.5" cx="18.5" cy="16.5" r="0.5" fill="white"/>
<circle opacity="0.4" cx="18.5" cy="17.5" r="0.5" fill="white"/>
<circle opacity="0.4" cx="18.5" cy="18.5" r="0.5" fill="white"/>
<circle opacity="0.4" cx="18.5" cy="19.5" r="0.5" fill="white"/>
<circle opacity="0.3" cx="18.5" cy="20.5" r="0.5" fill="white"/>
<circle opacity="0.3" cx="18.5" cy="21.5" r="0.5" fill="white"/>
<circle opacity="0.6" cx="18.5" cy="13.5" r="0.5" fill="white"/>
<circle opacity="0.3" cx="18.5" cy="22.5" r="0.5" fill="white"/>
<circle opacity="0.2" cx="18.5" cy="23.5" r="0.5" fill="white"/>
<circle opacity="0.2" cx="18.5" cy="25.5" r="0.5" fill="white"/>
<circle opacity="0.1" cx="18.5" cy="26.5" r="0.5" fill="white"/>
<circle opacity="0.03" cx="18.5" cy="28.5" r="0.5" fill="white"/>
<circle opacity="0.03" cx="17.5" cy="29.5" r="0.5" fill="white"/>
<circle opacity="0.03" cx="14.5" cy="29.5" r="0.5" fill="white"/>
<circle opacity="0.03" cx="13.5" cy="29.5" r="0.5" fill="white"/>
<circle opacity="0.03" cx="15.5" cy="29.5" r="0.5" fill="white"/>
<circle opacity="0.03" cx="16.5" cy="29.5" r="0.5" fill="white"/>
<circle opacity="0.03" cx="18.5" cy="29.5" r="0.5" fill="white"/>
<circle opacity="0.1" cx="13.5" cy="27.5" r="0.5" fill="white"/>
<circle opacity="0.1" cx="14.5" cy="27.5" r="0.5" fill="white"/>
<circle opacity="0.1" cx="15.5" cy="27.5" r="0.5" fill="white"/>
<circle opacity="0.1" cx="16.5" cy="27.5" r="0.5" fill="white"/>
<circle opacity="0.1" cx="17.5" cy="27.5" r="0.5" fill="white"/>
<circle opacity="0.1" cx="18.5" cy="27.5" r="0.5" fill="white"/>
<circle opacity="0.2" cx="18.5" cy="24.5" r="0.5" fill="white"/>
<defs>
<linearGradient id="paint0_linear_1_1123" x1="16" y1="58.6562" x2="16" y2="1.46875" gradientUnits="userSpaceOnUse">
<stop stop-color="#DBEAFE"/>
<stop offset="1" stop-color="#0034C5"/>
</linearGradient>
</defs>
</svg>
